<svg xmlns="http://www.w3.org/2000/svg" viewBox="0 0 512 512"><defs><style>.cls-1{fill:#2790a5;}.cls-2{fill:#0c1624;}</style></defs><title>avatar</title><g id="ajftech-bw-logo"><g id="cmyk-marquee"><path class="cls-1" d="M198.7228,248.6412V263.347a11.7386,11.7386,0,0,1-11.7269,11.7387h-.01v-38.17h.01a11.7362,11.7362,0,0,1,11.7269,11.7254"/><path class="cls-1" d="M87.1581,313.2673h14.7176a11.7254,11.7254,0,0,1,11.7254,11.7254v.0133H75.432v-.0133a11.7356,11.7356,0,0,1,11.7261-11.7254"/><path class="cls-1" d="M360.2179,248.6412V263.347a11.7377,11.7377,0,0,1-11.7254,11.7387h-.0117v-38.17h.0117a11.7354,11.7354,0,0,1,11.7254,11.7254"/><path class="cls-1" d="M424.8426,198.7232H410.1257a11.7269,11.7269,0,0,1-11.7269-11.7269v-.0112H436.568v.0112a11.7352,11.7352,0,0,1-11.7254,11.7269"/><path class="cls-2" d="M336.7421,75.4324a99.6725,99.6725,0,0,0-80.7444,41.15,99.8187,99.8187,0,1,0-80.74,158.5016V236.9151a61.6568,61.6568,0,1,1,61.66-61.6575v.0014h-.0029V336.7446h.0029a61.6586,61.6586,0,0,1-123.3172,0H75.432a99.8252,99.8252,0,0,0,199.65,0h-.0016v-61.66h61.6613V236.9151H275.0808l.0016-61.6575a61.6582,61.6582,0,0,1,123.3164,0h38.1677a99.83,99.83,0,0,0-99.8244-99.8252"/></g><path class="cls-1" d="M391.426,346.2836h0a45.142,45.142,0,0,1,45.142,45.142v45.1421a0,0,0,0,1,0,0H391.426a45.142,45.142,0,0,1-45.142-45.142v0a45.142,45.142,0,0,1,45.142-45.142Z"/></g></svg>