<svg xmlns="http://www.w3.org/2000/svg" viewBox="0 0 240.9762 240.9756"><defs><style>.cls-1{fill:#2790a5;}.cls-2{fill:#0c1624;}</style></defs><title>Asset 1</title><g id="Layer_2" data-name="Layer 2"><g id="ajfmedia-color-logo"><g id="cmyk-marquee"><path class="cls-1" d="M82.2686,115.5775V125.39a7.8328,7.8328,0,0,1-7.8251,7.8329h-.0068v-25.47h.0068a7.8313,7.8313,0,0,1,7.8251,7.824"/><path class="cls-1" d="M7.8245,158.7007h9.8206a7.8241,7.8241,0,0,1,7.8241,7.8241v.0088H0v-.0088a7.8308,7.8308,0,0,1,7.8245-7.8241"/><path class="cls-1" d="M190.03,115.5775V125.39a7.8323,7.8323,0,0,1-7.824,7.8329h-.0079v-25.47h.0079a7.8307,7.8307,0,0,1,7.824,7.824"/><path class="cls-1" d="M233.1522,82.2686h-9.82a7.8251,7.8251,0,0,1-7.8251-7.8251v-.0074h25.4693v.0074a7.8306,7.8306,0,0,1-7.824,7.8251"/><path class="cls-2" d="M174.3651,0a66.5089,66.5089,0,0,0-53.8785,27.4584,66.6063,66.6063,0,1,0-53.876,105.7638V107.753a41.1419,41.1419,0,1,1,41.1439-41.1424v.0009h-.0019v107.755h.0019a41.1431,41.1431,0,0,1-82.2862,0H0a66.6107,66.6107,0,0,0,133.2213,0H133.22V133.2222h41.1449V107.753H133.22l.0011-41.1424a41.1428,41.1428,0,0,1,82.2856,0h25.4683A66.6138,66.6138,0,0,0,174.3651,0"/></g><path class="cls-1" d="M210.8542,180.7316h0a30.122,30.122,0,0,1,30.122,30.122v30.1221a0,0,0,0,1,0,0H210.8542a30.122,30.122,0,0,1-30.122-30.122v0a30.122,30.122,0,0,1,30.122-30.122Z"/></g></g></svg>