<svg xmlns="http://www.w3.org/2000/svg" viewBox="0 0 512 512"><defs><style>.cls-1{fill:#231f20;}.cls-2{fill:#fff;}</style></defs><title>ajf-logo-array-2021</title><g id="ajftech-bw-logo"><rect class="cls-1" width="512" height="512" rx="50"/><g id="cmyk-marquee"><path class="cls-2" d="M183.37,246.6688v18.6475a14.885,14.885,0,0,1-14.87,14.8852h-.0131V231.8H168.5a14.882,14.882,0,0,1,14.87,14.8684"/><path class="cls-2" d="M41.901,328.6175H60.5635a14.8683,14.8683,0,0,1,14.8683,14.8683v.0168h-48.4v-.0168A14.8812,14.8812,0,0,1,41.901,328.6175"/><path class="cls-2" d="M388.153,246.6688v18.6475a14.8841,14.8841,0,0,1-14.8683,14.8852h-.015V231.8h.015a14.8811,14.8811,0,0,1,14.8683,14.8684"/><path class="cls-2" d="M470.1,183.3705H451.4383a14.87,14.87,0,0,1-14.87-14.87v-.0141h48.4V168.5a14.8808,14.8808,0,0,1-14.8683,14.87"/><path class="cls-2" d="M358.3846,27.0323a126.3894,126.3894,0,0,0-102.3875,52.18A126.5745,126.5745,0,1,0,153.6145,280.2V231.8a78.1836,78.1836,0,1,1,78.1873-78.1844v.0017h-.0037v204.771h.0037a78.1859,78.1859,0,0,1-156.3717,0H27.0317a126.5828,126.5828,0,0,0,253.1656,0h-.0019V280.2h78.1892V231.8H280.1954l.0019-78.1844a78.1854,78.1854,0,0,1,156.3707,0h48.3984A126.5889,126.5889,0,0,0,358.3846,27.0323"/></g><path class="cls-2" d="M427.7262,370.4836h0a57.242,57.242,0,0,1,57.242,57.242v57.2421a0,0,0,0,1,0,0H427.7262a57.242,57.242,0,0,1-57.242-57.242v0A57.242,57.242,0,0,1,427.7262,370.4836Z"/></g></svg>