<?xml version="1.0" encoding="utf-8"?>
<!-- Generator: Adobe Illustrator 23.1.0, SVG Export Plug-In . SVG Version: 6.00 Build 0)  -->
<svg version="1.1" xmlns="http://www.w3.org/2000/svg" xmlns:xlink="http://www.w3.org/1999/xlink" x="0px" y="0px"
	 viewBox="0 0 360 360" style="enable-background:new 0 0 360 360;" xml:space="preserve">
<style type="text/css">
	.st0{fill:#F2E8DA;}
	.st1{fill:#0C1624;}
	.st2{fill:#2790A5;}
	.st3{fill:#204F71;}
	.st4{fill:#0E4C59;}
	.st5{fill:#D86F5A;}
	.st6{fill:#FFFFFF;}
</style>
<g id="ajftech-profile-logo">
</g>
<g id="ajfmedia-profile-logo">
</g>
<g id="ajftech-bw-logo">
</g>
<g id="ajftech-color-logo">
</g>
<g id="ajfmedia-bw-logo">
</g>
<g id="ajfmedia-color-logo">
	<rect class="st0" width="360" height="360"/>
	<g>
		<path class="st1" d="M280.4,307.3h26.9v-26.9c0-14.9-12-26.9-26.9-26.9h0c-14.9,0-26.9,12-26.9,26.9v0
			C253.5,295.2,265.5,307.3,280.4,307.3z"/>
		<g>
			<path class="st1" d="M266.9,173.3v13.4c0,3.7-3,6.7-6.7,6.7v-26.9C263.9,166.5,266.9,169.6,266.9,173.3z"/>
			<path class="st1" d="M153.1,173.3v13.4c0,3.7-3,6.7-6.7,6.7v-26.9C150.1,166.5,153.1,169.6,153.1,173.3z"/>
			<path class="st1" d="M307.3,146.4c0,3.7-3,6.7-6.7,6.7h-13.4c-3.7,0-6.7-3-6.7-6.7H307.3z"/>
			<path class="st1" d="M79.6,213.6H52.7c0-3.7,3-6.7,6.7-6.7h13.4C76.6,206.9,79.6,209.9,79.6,213.6z"/>
			<path class="st1" d="M193.4,193.4v43.5c0,38.9-31.5,70.4-70.4,70.4s-70.3-31.5-70.3-70.4v-9.8h26.9v9.8c0,24,19.4,43.4,43.4,43.4
				c12,0,22.9-4.9,30.7-12.7c7.9-7.9,12.7-18.7,12.7-30.7V123.1c0-24-19.5-43.5-43.5-43.5c-24,0-43.4,19.5-43.4,43.5
				c0,12,4.9,22.9,12.7,30.7c7.9,7.9,18.7,12.7,30.7,12.7h9.8v26.9h-9.8v0c-39.4,0-71.2-32.4-70.3-72c0.8-37.1,30.8-67.4,67.9-68.7
				c24.4-0.8,46.1,10.8,59.4,29c13-17.8,34-29.3,57.8-29c38.7,0.5,69.4,32.7,69.4,71.3v8.9h-26.9v-9.1c0-23.8-18.9-43.8-42.7-44.2
				c-24.3-0.4-44.2,19.2-44.2,43.5v43.4h53.3v26.9L193.4,193.4z"/>
		</g>
	</g>
</g>
</svg>
