<svg xmlns="http://www.w3.org/2000/svg" viewBox="0 0 338.5979 87.0314"><defs><style>.cls-1{fill:#0c1624;}.cls-2{fill:#2790a5;}.cls-3{fill:#fff;}</style></defs><title>Asset 5</title><g id="Layer_2" data-name="Layer 2"><g id="ajftech-color-logo"><path class="cls-1" d="M33.7753,68.9959a3.7167,3.7167,0,0,0,6.3758-2.66V50.0856a20.2682,20.2682,0,0,0-2.66-10.3476,19.6067,19.6067,0,0,0-17.3792-9.91,19.9286,19.9286,0,0,0-10.2384,2.66A19.6713,19.6713,0,0,0,2.66,39.738,20.2583,20.2583,0,0,0,0,50.0856,21.4646,21.4646,0,0,0,2.4412,60.3969a18.8886,18.8886,0,0,0,6.6677,7.2138,17.5321,17.5321,0,0,0,9.5457,2.6606A17.54,17.54,0,0,0,28.2,67.6107a18.59,18.59,0,0,0,4.5179-3.9863v2.7118A3.6045,3.6045,0,0,0,33.7753,68.9959ZM26.7432,61.927a12.428,12.428,0,0,1-6.6309,1.7858,12.4774,12.4774,0,0,1-6.5947-1.7858,12.86,12.86,0,0,1-4.6639-4.8823,14.1313,14.1313,0,0,1-1.7124-6.9591A14.2841,14.2841,0,0,1,8.8537,43.054a12.8807,12.8807,0,0,1,4.6639-4.8824,12.494,12.494,0,0,1,6.5947-1.7849,12.4444,12.4444,0,0,1,6.6309,1.7849,12.717,12.717,0,0,1,4.591,4.8824A14.5445,14.5445,0,0,1,33.01,50.0856a14.3881,14.3881,0,0,1-1.6761,6.9591A12.6963,12.6963,0,0,1,26.7432,61.927Z"/><path class="cls-1" d="M50.9351,30.1192a3.6732,3.6732,0,0,0-2.66,1.0208,3.5753,3.5753,0,0,0-1.0565,2.6959V69.8334a9.802,9.802,0,0,1-1.2755,5.0283,9.4579,9.4579,0,0,1-3.4614,3.461,9.939,9.939,0,0,1-5.1008,1.2754,3.5537,3.5537,0,0,0-2.6234,1.02,4.0267,4.0267,0,0,0,0,5.3565,3.4908,3.4908,0,0,0,2.6234,1.057,17.6511,17.6511,0,0,0,8.9629-2.2227,16.27,16.27,0,0,0,6.0848-6.0853,17.5039,17.5039,0,0,0,2.2227-8.89V33.8359a3.507,3.507,0,0,0-3.7166-3.7167Z"/><path class="cls-1" d="M50.9351,14.0155a4.8512,4.8512,0,0,0-4.8094,4.8089,4.8095,4.8095,0,1,0,8.1979-3.3885A4.6259,4.6259,0,0,0,50.9351,14.0155Z"/><path class="cls-1" d="M80.4463,31.5769H73.0135V29.61a11.1282,11.1282,0,0,1,1.13-5.1742,8.4626,8.4626,0,0,1,3.17-3.4247,8.948,8.948,0,0,1,4.7364-1.2392,3.7519,3.7519,0,0,0,2.66-.9836,3.2231,3.2231,0,0,0,0-4.7726,3.8432,3.8432,0,0,0-2.66-.9473,16.8734,16.8734,0,0,0-8.5985,2.1493,15.021,15.021,0,0,0-5.7934,6.0118,18.9677,18.9677,0,0,0-2.0768,9.1094v1.2382H62.4475a3.5067,3.5067,0,0,0-2.4775.8748,3.0187,3.0187,0,0,0-.9472,2.3314A2.85,2.85,0,0,0,59.97,36.97a3.5061,3.5061,0,0,0,2.4775.8738h3.1332V66.2628a3.6094,3.6094,0,0,0,3.5707,3.7166,3.8422,3.8422,0,0,0,2.8418-1.02,3.6451,3.6451,0,0,0,1.02-2.6968V37.8434h7.4328a3.51,3.51,0,0,0,2.4779-.8738,2.8551,2.8551,0,0,0,.9472-2.1865,3.0239,3.0239,0,0,0-.9472-2.3314A3.51,3.51,0,0,0,80.4463,31.5769Z"/><path class="cls-2" d="M197.29-80.071h39.4251a21.8115,21.8115,0,0,1,21.8115,21.8115V141.3071a21.8115,21.8115,0,0,1-21.8115,21.8115H197.2908a21.8115,21.8115,0,0,1-21.8115-21.8115V-58.26A21.811,21.811,0,0,1,197.29-80.071Z" transform="translate(175.4793 258.5269) rotate(-90)"/><path class="cls-3" d="M161.4812,65.3144h-1.603a9.1015,9.1015,0,0,1-6.7756-2.6594,9.3871,9.3871,0,0,1-2.6238-6.8863V35.2948h9.6188a1.9685,1.9685,0,1,0,0-3.9353h-9.6188V19.4834a2.1284,2.1284,0,0,0-2.2582-2.2591,2.1232,2.1232,0,0,0-1.5664.62,2.2163,2.2163,0,0,0-.62,1.6395V31.36H140.351a1.9685,1.9685,0,1,0,0,3.9353h5.6835V55.7687a14.61,14.61,0,0,0,1.7483,7.1768,12.5945,12.5945,0,0,0,4.882,4.9552,14.7007,14.7007,0,0,0,7.1412,1.8579h1.6752a2.2162,2.2162,0,0,0,1.6395-.62,2.1232,2.1232,0,0,0,.62-1.5664,2.1284,2.1284,0,0,0-2.2591-2.2582Z"/><path class="cls-3" d="M198.9326,32.0522a19.2937,19.2937,0,0,0-19.2357.1088,18.36,18.36,0,0,0-6.63,7.1777,22.2222,22.2222,0,0,0-2.4044,10.5281,21.23,21.23,0,0,0,2.55,10.4924,18.4814,18.4814,0,0,0,7.0315,7.1768,20.0924,20.0924,0,0,0,10.2375,2.5873,20.7253,20.7253,0,0,0,7.1768-1.3846,18.4558,18.4558,0,0,0,6.0838-3.4974,1.8194,1.8194,0,0,0,.6928-1.4577,2.0083,2.0083,0,0,0-.8381-1.4567,1.9464,1.9464,0,0,0-1.4211-.4734,2.0683,2.0683,0,0,0-1.4211.6186,12.2015,12.2015,0,0,1-4.554,2.5873,17.612,17.612,0,0,1-5.7191.9833,15.4027,15.4027,0,0,1-8.0149-2.0763,14.5656,14.5656,0,0,1-5.4651-5.72,16.8234,16.8234,0,0,1-1.9251-7.0681h30.56a2.1469,2.1469,0,0,0,1.53-.5465,1.9473,1.9473,0,0,0,.5831-1.4933,21.43,21.43,0,0,0-2.3313-10.1643A17.4787,17.4787,0,0,0,198.9326,32.0522Zm-22.0414,9.3629a14.4143,14.4143,0,0,1,5.1005-5.72,13.4132,13.4132,0,0,1,7.3962-2.0764,13.8054,13.8054,0,0,1,7.6136,2.0764,13.646,13.646,0,0,1,4.9917,5.72A16.7345,16.7345,0,0,1,203.54,47.39H175.1684A17.1784,17.1784,0,0,1,176.8912,41.4151Z"/><path class="cls-3" d="M240.8292,31.3229a20.0934,20.0934,0,0,0-8.5248-1.7848,17.8142,17.8142,0,0,0-9.6909,2.6594,18.568,18.568,0,0,0-6.63,7.25,22.1177,22.1177,0,0,0-2.4045,10.4193,20.7056,20.7056,0,0,0,2.5863,10.3471A19.5519,19.5519,0,0,0,223.2331,67.5a19.3239,19.3239,0,0,0,10.1644,2.696,18.87,18.87,0,0,0,13.26-4.8811,1.7225,1.7225,0,0,0,.62-1.4211,2.1077,2.1077,0,0,0-.7649-1.4943,1.67,1.67,0,0,0-1.3846-.51,2.5031,2.5031,0,0,0-1.4577.6562,12.4364,12.4364,0,0,1-4.6261,2.696,17.97,17.97,0,0,1-5.6469.8746,14.9417,14.9417,0,0,1-8.0515-2.1495,15.1122,15.1122,0,0,1-5.4285-5.83,17.2563,17.2563,0,0,1-1.9677-8.27,18.8024,18.8024,0,0,1,1.7858-8.3786,14.1355,14.1355,0,0,1,5.0274-5.7566,13.4984,13.4984,0,0,1,7.5414-2.113,14.8462,14.8462,0,0,1,11.8761,5.5373,2.1121,2.1121,0,0,0,1.3845.8381,1.8758,1.8758,0,0,0,1.4577-.4,1.95,1.95,0,0,0,.9468-1.3114,1.8479,1.8479,0,0,0-.4368-1.5308A18.1029,18.1029,0,0,0,240.8292,31.3229Z"/><path class="cls-3" d="M293.2173,37.8079a15.9181,15.9181,0,0,0-6.5947-6.2656,20.37,20.37,0,0,0-9.435-2.1495,17.7083,17.7083,0,0,0-8.5258,2.0764,17.21,17.21,0,0,0-5.3188,4.4333V15.0382a2.0171,2.0171,0,0,0-2.1861-2.186,2.1944,2.1944,0,0,0-1.5664.583,2.0965,2.0965,0,0,0-.6186,1.603V67.5726a2.1176,2.1176,0,0,0,2.185,2.186,2.0955,2.0955,0,0,0,1.603-.62,2.1928,2.1928,0,0,0,.5831-1.5664V45.2763a10.1063,10.1063,0,0,1,1.8214-5.902,12.3625,12.3625,0,0,1,4.9551-4.1161,16.2283,16.2283,0,0,1,7.0681-1.4943,15.983,15.983,0,0,1,7.1768,1.5674,11.864,11.864,0,0,1,5.0274,4.6992,15.38,15.38,0,0,1,1.8579,7.9418v19.6a2.1864,2.1864,0,1,0,4.3721,0v-19.6A19.8662,19.8662,0,0,0,293.2173,37.8079Z"/></g></g></svg>