<svg xmlns="http://www.w3.org/2000/svg" viewBox="0 0 512 144.3179"><defs><style>.cls-1{fill:#fff;}</style></defs><title>ajf-logo-array-2021</title><g id="ajftech-bw-logo"><path class="cls-1" d="M63.88,108.1251a5.2688,5.2688,0,0,0,9.0383-3.77V81.3176a28.7322,28.7322,0,0,0-3.77-14.6688A27.7947,27.7947,0,0,0,44.5114,52.6007a28.25,28.25,0,0,0-14.514,3.77A27.885,27.885,0,0,0,19.77,66.6488,28.7184,28.7184,0,0,0,16,81.3176a30.4293,30.4293,0,0,0,3.4606,14.6175,26.7778,26.7778,0,0,0,9.4522,10.2264,24.8552,24.8552,0,0,0,13.5322,3.7716,24.8648,24.8648,0,0,0,13.5322-3.7716,26.3575,26.3575,0,0,0,6.4047-5.651v3.8442A5.1092,5.1092,0,0,0,63.88,108.1251ZM53.9115,98.1042a17.6181,17.6181,0,0,1-9.4,2.5316,17.6883,17.6883,0,0,1-9.3487-2.5316,18.2313,18.2313,0,0,1-6.6116-6.9212,20.0325,20.0325,0,0,1-2.4275-9.8654A20.25,20.25,0,0,1,28.5511,71.35a18.2606,18.2606,0,0,1,6.6116-6.9212,17.7119,17.7119,0,0,1,9.3487-2.53,17.6414,17.6414,0,0,1,9.4,2.53A18.0264,18.0264,0,0,1,60.42,71.35a20.618,20.618,0,0,1,2.3761,9.9681A20.3959,20.3959,0,0,1,60.42,91.183,17.9976,17.9976,0,0,1,53.9115,98.1042Z"/><path class="cls-1" d="M88.2062,53.0132a5.2074,5.2074,0,0,0-3.77,1.447,5.0687,5.0687,0,0,0-1.4977,3.8217v51.0305a13.8953,13.8953,0,0,1-1.8081,7.1282,13.4072,13.4072,0,0,1-4.9069,4.9063,14.09,14.09,0,0,1-7.231,1.8081,5.0376,5.0376,0,0,0-3.7189,1.4456,5.7081,5.7081,0,0,0,0,7.5934,4.9487,4.9487,0,0,0,3.7189,1.4984,25.023,25.023,0,0,0,12.7059-3.1509,23.0651,23.0651,0,0,0,8.6259-8.6266,24.8133,24.8133,0,0,0,3.151-12.6025v-51.03a4.9715,4.9715,0,0,0-5.2687-5.2687Z"/><path class="cls-1" d="M88.2062,30.1843A6.7928,6.7928,0,0,0,83.4027,41.805a6.7933,6.7933,0,1,0,9.607-9.6071A6.5575,6.5575,0,0,0,88.2062,30.1843Z"/><path class="cls-1" d="M130.0415,55.08H119.5047V52.291a15.7748,15.7748,0,0,1,1.6012-7.3351A11.9974,11.9974,0,0,1,125.6,40.101a12.6852,12.6852,0,0,1,6.7144-1.7567,5.3191,5.3191,0,0,0,3.771-1.3942,4.5692,4.5692,0,0,0,0-6.7658,5.4483,5.4483,0,0,0-3.771-1.3429,23.92,23.92,0,0,0-12.1893,3.0469,21.2927,21.2927,0,0,0-8.2128,8.5224,26.8892,26.8892,0,0,0-2.944,12.9135V55.08h-4.4418a4.9709,4.9709,0,0,0-3.512,1.24,4.28,4.28,0,0,0-1.3429,3.3051,4.04,4.04,0,0,0,1.3429,3.1,4.97,4.97,0,0,0,3.512,1.2388h4.4418v40.2875a5.1163,5.1163,0,0,0,5.0618,5.2687,5.4473,5.4473,0,0,0,4.0286-1.4456,5.1675,5.1675,0,0,0,1.4463-3.8231V63.9631h10.5368a4.9753,4.9753,0,0,0,3.5127-1.2388,4.0471,4.0471,0,0,0,1.3429-3.1,4.2869,4.2869,0,0,0-1.3429-3.3051A4.9761,4.9761,0,0,0,130.0415,55.08Z"/><path class="cls-1" d="M295.2716,61.2271a19.5718,19.5718,0,0,0-10.7935-2.9435,19.0149,19.0149,0,0,0-10.4848,2.9435,20.4336,20.4336,0,0,0-7.23,8.1088,24.35,24.35,0,0,0-2.4419,8.47H304.54a23.7184,23.7184,0,0,0-2.1924-8.47A19.3422,19.3422,0,0,0,295.2716,61.2271Z"/><path class="cls-1" d="M465.08,10.6255H182.172a30.92,30.92,0,0,0-30.92,30.92V97.4351a30.92,30.92,0,0,0,30.92,30.92H465.08A30.9205,30.9205,0,0,0,496,97.4344V41.5457A30.92,30.92,0,0,0,465.08,10.6255ZM247.2418,108.6376a3.1422,3.1422,0,0,1-2.3242.8785h-2.375a20.8383,20.8383,0,0,1-10.1231-2.6339,17.8515,17.8515,0,0,1-6.9209-7.0245A20.7119,20.7119,0,0,1,223.02,89.6838V60.66H214.963a2.7906,2.7906,0,1,1,0-5.5787H223.02V38.2454a3.1427,3.1427,0,0,1,.8784-2.3242,3.01,3.01,0,0,1,2.2207-.8784,3.0172,3.0172,0,0,1,3.2012,3.2026V55.081h13.6357a2.7906,2.7906,0,1,1,0,5.5787H229.32V89.6838a13.3058,13.3058,0,0,0,3.72,9.762,12.9011,12.9011,0,0,0,9.605,3.77h2.2725a3.0172,3.0172,0,0,1,3.2026,3.2012A3.0105,3.0105,0,0,1,247.2418,108.6376Zm62.439-26.2361a3.0448,3.0448,0,0,1-2.169.7748H264.1891a23.8539,23.8539,0,0,0,2.7294,10.02,20.6459,20.6459,0,0,0,7.7471,8.1089,21.8357,21.8357,0,0,0,11.3623,2.9435,24.9649,24.9649,0,0,0,8.1074-1.394,17.2951,17.2951,0,0,0,6.4556-3.6678,2.9339,2.9339,0,0,1,2.0147-.877,2.76,2.76,0,0,1,2.0146.6711,2.8464,2.8464,0,0,1,1.188,2.065,2.5783,2.5783,0,0,1-.9819,2.0665,26.1636,26.1636,0,0,1-8.6246,4.9581,29.3815,29.3815,0,0,1-10.1738,1.9627,28.4817,28.4817,0,0,1-14.5127-3.6677,26.2,26.2,0,0,1-9.9682-10.174,30.0939,30.0939,0,0,1-3.6143-14.8742,31.5,31.5,0,0,1,3.4087-14.9246A26.0229,26.0229,0,0,1,270.74,56.2172a27.3506,27.3506,0,0,1,27.2686-.1541,24.7755,24.7755,0,0,1,9.1933,9.8125,30.3817,30.3817,0,0,1,3.3047,14.409A2.7614,2.7614,0,0,1,309.6808,82.4015ZM367.524,64.8948a2.7648,2.7648,0,0,1-1.3418,1.8592,2.6593,2.6593,0,0,1-2.0664.5674,2.9938,2.9938,0,0,1-1.9629-1.1881,21.0461,21.0461,0,0,0-16.8354-7.85,19.1353,19.1353,0,0,0-10.6909,2.9953A20.04,20.04,0,0,0,327.5,69.44a26.6555,26.6555,0,0,0-2.5317,11.8775,24.46,24.46,0,0,0,2.79,11.7234,21.4232,21.4232,0,0,0,7.6953,8.2644,21.182,21.182,0,0,0,11.4141,3.0472,25.4752,25.4752,0,0,0,8.0054-1.24A17.6279,17.6279,0,0,0,361.43,99.29a3.5487,3.5487,0,0,1,2.0669-.93,2.3679,2.3679,0,0,1,1.9624.7229,2.9881,2.9881,0,0,1,1.0844,2.1183,2.4416,2.4416,0,0,1-.8784,2.0147q-7.54,6.92-18.7983,6.9194a27.3928,27.3928,0,0,1-14.4092-3.8219,27.714,27.714,0,0,1-10.0195-10.328,29.3521,29.3521,0,0,1-3.6665-14.6683,31.3538,31.3538,0,0,1,3.4087-14.77,26.3227,26.3227,0,0,1,9.3989-10.2776,25.2539,25.2539,0,0,1,13.7383-3.77,28.4834,28.4834,0,0,1,12.0844,2.53,25.658,25.658,0,0,1,9.503,7.6955A2.617,2.617,0,0,1,367.524,64.8948Zm67.5527,41.5223a3.1,3.1,0,1,1-6.1982,0V78.6315a21.798,21.798,0,0,0-2.6338-11.2583,16.8183,16.8183,0,0,0-7.1264-6.6616,22.66,22.66,0,0,0-10.1744-2.222,23.0059,23.0059,0,0,0-10.0195,2.1183,17.5209,17.5209,0,0,0-7.0244,5.835,14.3275,14.3275,0,0,0-2.582,8.3667v31.6075a3.1075,3.1075,0,0,1-.8267,2.2205,2.971,2.971,0,0,1-2.2725.8785,3.0029,3.0029,0,0,1-3.0976-3.099V31.9438a2.9711,2.9711,0,0,1,.8774-2.2724,3.11,3.11,0,0,1,2.22-.8265,2.86,2.86,0,0,1,3.0992,3.0989V61.5212a24.3972,24.3972,0,0,1,7.54-6.2847,25.1018,25.1018,0,0,1,12.0859-2.9435A28.8763,28.8763,0,0,1,422.3194,55.34a22.568,22.568,0,0,1,9.3487,8.8822q3.4086,5.8379,3.4086,14.4091Z"/></g></svg>