<svg xmlns="http://www.w3.org/2000/svg" viewBox="0 0 512 145.2591"><title>ajf-logo-array-2021</title><g id="ajftech-bw-logo"><path d="M63.88,108.5957a5.2688,5.2688,0,0,0,9.0383-3.77V81.7882a28.732,28.732,0,0,0-3.77-14.6688A27.7947,27.7947,0,0,0,44.5114,53.0713a28.25,28.25,0,0,0-14.514,3.77A27.885,27.885,0,0,0,19.77,67.1194,28.7181,28.7181,0,0,0,16,81.7882a30.4293,30.4293,0,0,0,3.4606,14.6175,26.7778,26.7778,0,0,0,9.4522,10.2264,24.8552,24.8552,0,0,0,13.5322,3.7716,24.8648,24.8648,0,0,0,13.5322-3.7716,26.36,26.36,0,0,0,6.4047-5.651v3.8442A5.1092,5.1092,0,0,0,63.88,108.5957ZM53.9115,98.5748a17.6181,17.6181,0,0,1-9.4,2.5316,17.6883,17.6883,0,0,1-9.3487-2.5316,18.2309,18.2309,0,0,1-6.6116-6.9213,20.0321,20.0321,0,0,1-2.4275-9.8653A20.2493,20.2493,0,0,1,28.5511,71.82a18.2616,18.2616,0,0,1,6.6116-6.9213,17.7128,17.7128,0,0,1,9.3487-2.53,17.6422,17.6422,0,0,1,9.4,2.53A18.0274,18.0274,0,0,1,60.42,71.82a20.6177,20.6177,0,0,1,2.3761,9.9681A20.3955,20.3955,0,0,1,60.42,91.6535,17.9972,17.9972,0,0,1,53.9115,98.5748Z"/><path d="M88.2062,53.4837a5.2078,5.2078,0,0,0-3.77,1.447,5.0691,5.0691,0,0,0-1.4977,3.8218V109.783a13.8953,13.8953,0,0,1-1.8081,7.1282,13.4072,13.4072,0,0,1-4.9069,4.9063,14.09,14.09,0,0,1-7.231,1.8081,5.0376,5.0376,0,0,0-3.7189,1.4456,5.7081,5.7081,0,0,0,0,7.5934,4.9487,4.9487,0,0,0,3.7189,1.4984,25.0221,25.0221,0,0,0,12.7059-3.151,23.0641,23.0641,0,0,0,8.6259-8.6265,24.8133,24.8133,0,0,0,3.151-12.6025v-51.03a4.9715,4.9715,0,0,0-5.2687-5.2688Z"/><path d="M88.2062,30.6549a6.7928,6.7928,0,0,0-4.8035,11.6207,6.7933,6.7933,0,1,0,9.607-9.6071A6.5575,6.5575,0,0,0,88.2062,30.6549Z"/><path d="M130.0415,55.55H119.5047V52.7616a15.7748,15.7748,0,0,1,1.6012-7.3351A11.9974,11.9974,0,0,1,125.6,40.5716a12.6852,12.6852,0,0,1,6.7144-1.7567,5.3191,5.3191,0,0,0,3.771-1.3942,4.5692,4.5692,0,0,0,0-6.7658,5.4483,5.4483,0,0,0-3.771-1.3429,23.9206,23.9206,0,0,0-12.1893,3.0468,21.2936,21.2936,0,0,0-8.2128,8.5225,26.8892,26.8892,0,0,0-2.944,12.9135V55.55h-4.4418a4.9709,4.9709,0,0,0-3.512,1.24,4.28,4.28,0,0,0-1.3429,3.3051,4.04,4.04,0,0,0,1.3429,3.1,4.97,4.97,0,0,0,3.512,1.2387h4.4418v40.2876A5.1163,5.1163,0,0,0,114.03,109.99a5.4473,5.4473,0,0,0,4.0286-1.4456,5.1676,5.1676,0,0,0,1.4463-3.8231V64.4336h10.5368a4.9753,4.9753,0,0,0,3.5127-1.2387,4.0471,4.0471,0,0,0,1.3429-3.1,4.2869,4.2869,0,0,0-1.3429-3.3051A4.9761,4.9761,0,0,0,130.0415,55.55Z"/><path d="M295.2714,61.6977a19.571,19.571,0,0,0-10.7932-2.9435,19.0144,19.0144,0,0,0-10.4848,2.9435,20.4336,20.4336,0,0,0-7.2305,8.1088,24.3569,24.3569,0,0,0-2.4424,8.47h40.22a23.7245,23.7245,0,0,0-2.1923-8.47A19.3465,19.3465,0,0,0,295.2714,61.6977Z"/><path d="M465.08,11.0961H182.1721a30.92,30.92,0,0,0-30.92,30.92V97.9057a30.92,30.92,0,0,0,30.9194,30.92H465.08A30.92,30.92,0,0,0,496,97.905V42.0163A30.92,30.92,0,0,0,465.08,11.0961ZM247.2417,109.1082a3.1418,3.1418,0,0,1-2.3243.8784h-2.3747a20.8417,20.8417,0,0,1-10.1236-2.6338,17.8553,17.8553,0,0,1-6.9206-7.0245A20.7107,20.7107,0,0,1,223.02,90.1544V61.13h-8.0571a2.7906,2.7906,0,1,1,0-5.5787H223.02V38.716a3.1414,3.1414,0,0,1,.8784-2.3242,3.0094,3.0094,0,0,1,2.2205-.8784A3.0172,3.0172,0,0,1,229.32,38.716V55.5516H242.956a2.7906,2.7906,0,1,1,0,5.5787H229.32V90.1544a13.307,13.307,0,0,0,3.72,9.762,12.9017,12.9017,0,0,0,9.605,3.77h2.2724a3.0173,3.0173,0,0,1,3.2027,3.2012A3.01,3.01,0,0,1,247.2417,109.1082Zm62.4389-26.2361a3.0443,3.0443,0,0,1-2.1687.7748H264.1894a23.8463,23.8463,0,0,0,2.729,10.02,20.6485,20.6485,0,0,0,7.7473,8.1089,21.8355,21.8355,0,0,0,11.3621,2.9435,24.964,24.964,0,0,0,8.1074-1.394,17.2945,17.2945,0,0,0,6.4558-3.6678,2.9331,2.9331,0,0,1,2.0147-.877,2.76,2.76,0,0,1,2.0146.6711,2.848,2.848,0,0,1,1.188,2.065,2.5784,2.5784,0,0,1-.9822,2.0665,26.1637,26.1637,0,0,1-8.6242,4.958,29.3815,29.3815,0,0,1-10.1741,1.9628,28.4822,28.4822,0,0,1-14.5127-3.6677,26.2,26.2,0,0,1-9.968-10.174,30.094,30.094,0,0,1-3.6145-14.8742,31.5031,31.5031,0,0,1,3.4084-14.9246A26.0263,26.0263,0,0,1,270.74,56.6878a27.3509,27.3509,0,0,1,27.2686-.1542,24.78,24.78,0,0,1,9.1933,9.8125,30.3821,30.3821,0,0,1,3.3047,14.4091A2.76,2.76,0,0,1,309.6806,82.8721Zm57.8435-17.5067a2.7641,2.7641,0,0,1-1.342,1.8592,2.6592,2.6592,0,0,1-2.0664.5673,2.9935,2.9935,0,0,1-1.9629-1.188,21.0456,21.0456,0,0,0-16.8355-7.85A19.136,19.136,0,0,0,334.6264,61.75,20.0388,20.0388,0,0,0,327.5,69.91a26.6528,26.6528,0,0,0-2.5317,11.8775,24.4612,24.4612,0,0,0,2.7895,11.7234,21.4232,21.4232,0,0,0,7.6953,8.2644,21.1822,21.1822,0,0,0,11.4141,3.0471,25.4715,25.4715,0,0,0,8.0051-1.24,17.6268,17.6268,0,0,0,6.5579-3.8219,3.5487,3.5487,0,0,1,2.0664-.93,2.3688,2.3688,0,0,1,1.9629.7229,2.9886,2.9886,0,0,1,1.0845,2.1183,2.4425,2.4425,0,0,1-.8785,2.0147q-7.54,6.92-18.7983,6.9194a27.3923,27.3923,0,0,1-14.4092-3.8219,27.7156,27.7156,0,0,1-10.02-10.328,29.3521,29.3521,0,0,1-3.6665-14.6683,31.355,31.355,0,0,1,3.4087-14.77A26.322,26.322,0,0,1,331.5793,56.74a25.2532,25.2532,0,0,1,13.738-3.77,28.4831,28.4831,0,0,1,12.0848,2.53,25.66,25.66,0,0,1,9.5029,7.6955A2.6187,2.6187,0,0,1,367.5241,65.3654Zm67.5525,41.5223a3.1,3.1,0,1,1-6.198,0V79.1021a21.8029,21.8029,0,0,0-2.6338-11.2583,16.8176,16.8176,0,0,0-7.1267-6.6617A22.658,22.658,0,0,0,408.9443,58.96a23.0061,23.0061,0,0,0-10.02,2.1182A17.5238,17.5238,0,0,0,391.9,66.9135a14.3255,14.3255,0,0,0-2.5821,8.3667v31.6075a3.1086,3.1086,0,0,1-.8264,2.2205,2.9708,2.9708,0,0,1-2.2724.8784,3.0019,3.0019,0,0,1-3.0977-3.0989V32.4144a2.9726,2.9726,0,0,1,.8769-2.2724,3.1115,3.1115,0,0,1,2.2208-.8266,2.8594,2.8594,0,0,1,3.0988,3.099V61.9918a24.3976,24.3976,0,0,1,7.54-6.2847,25.1037,25.1037,0,0,1,12.0864-2.9435,28.8774,28.8774,0,0,1,13.375,3.0471,22.568,22.568,0,0,1,9.3489,8.8822q3.4086,5.838,3.4084,14.4092Z"/></g></svg>