<svg xmlns="http://www.w3.org/2000/svg" viewBox="0 0 338.5979 86.8492"><defs><style>.cls-1{fill:#0c1624;}.cls-2{fill:#2790a5;}.cls-3{fill:#fff;}</style></defs><title>Asset 4</title><g id="Layer_2" data-name="Layer 2"><g id="ajfmedia-color-logo"><path class="cls-1" d="M33.7753,68.8137a3.7167,3.7167,0,0,0,6.3758-2.66V49.9034a20.2682,20.2682,0,0,0-2.66-10.3476,19.6067,19.6067,0,0,0-17.3792-9.91,19.9286,19.9286,0,0,0-10.2384,2.66,19.6713,19.6713,0,0,0-7.2143,7.25A20.2583,20.2583,0,0,0,0,49.9034,21.4646,21.4646,0,0,0,2.4412,60.2147a18.8886,18.8886,0,0,0,6.6677,7.2138,17.5321,17.5321,0,0,0,9.5457,2.6606A17.54,17.54,0,0,0,28.2,67.4285a18.59,18.59,0,0,0,4.5179-3.9863V66.154A3.6045,3.6045,0,0,0,33.7753,68.8137Zm-7.0321-7.0689a12.428,12.428,0,0,1-6.6309,1.7858,12.4774,12.4774,0,0,1-6.5947-1.7858,12.86,12.86,0,0,1-4.6639-4.8823,14.1313,14.1313,0,0,1-1.7124-6.9591,14.2848,14.2848,0,0,1,1.7124-7.0317,12.8811,12.8811,0,0,1,4.6639-4.8823,12.494,12.494,0,0,1,6.5947-1.7849,12.4444,12.4444,0,0,1,6.6309,1.7849,12.7174,12.7174,0,0,1,4.591,4.8823A14.5452,14.5452,0,0,1,33.01,49.9034a14.3881,14.3881,0,0,1-1.6761,6.9591A12.6963,12.6963,0,0,1,26.7432,61.7448Z"/><path class="cls-1" d="M50.9351,29.937a3.6732,3.6732,0,0,0-2.66,1.0208,3.5753,3.5753,0,0,0-1.0565,2.6959V69.6512A9.802,9.802,0,0,1,45.9435,74.68a9.4579,9.4579,0,0,1-3.4614,3.461,9.939,9.939,0,0,1-5.1008,1.2754,3.5533,3.5533,0,0,0-2.6234,1.02,4.0267,4.0267,0,0,0,0,5.3565,3.4908,3.4908,0,0,0,2.6234,1.057,17.6521,17.6521,0,0,0,8.9629-2.2227,16.27,16.27,0,0,0,6.0848-6.0853,17.5039,17.5039,0,0,0,2.2227-8.89V33.6537a3.507,3.507,0,0,0-3.7166-3.7167Z"/><path class="cls-1" d="M50.9351,13.8333a4.8512,4.8512,0,0,0-4.8094,4.8089,4.8095,4.8095,0,1,0,8.1979-3.3885A4.6259,4.6259,0,0,0,50.9351,13.8333Z"/><path class="cls-1" d="M80.4463,31.3947H73.0135V29.4276a11.1282,11.1282,0,0,1,1.13-5.1742,8.4626,8.4626,0,0,1,3.17-3.4247A8.948,8.948,0,0,1,82.0494,19.59a3.7519,3.7519,0,0,0,2.66-.9836,3.2231,3.2231,0,0,0,0-4.7726,3.8432,3.8432,0,0,0-2.66-.9473,16.8734,16.8734,0,0,0-8.5985,2.1493,15.021,15.021,0,0,0-5.7934,6.0118,18.9677,18.9677,0,0,0-2.0768,9.1094v1.2382H62.4475A3.5067,3.5067,0,0,0,59.97,32.27a3.0187,3.0187,0,0,0-.9472,2.3314,2.85,2.85,0,0,0,.9472,2.1865,3.5061,3.5061,0,0,0,2.4775.8738h3.1332V66.0806a3.6094,3.6094,0,0,0,3.5707,3.7166,3.8422,3.8422,0,0,0,2.8418-1.02,3.6451,3.6451,0,0,0,1.02-2.6968V37.6612h7.4328a3.51,3.51,0,0,0,2.4779-.8738,2.8551,2.8551,0,0,0,.9472-2.1865,3.0239,3.0239,0,0,0-.9472-2.3314A3.51,3.51,0,0,0,80.4463,31.3947Z"/><path class="cls-2" d="M197.29-80.071h39.4251a21.8115,21.8115,0,0,1,21.8115,21.8115V141.3071a21.8115,21.8115,0,0,1-21.8115,21.8115H197.2908a21.8115,21.8115,0,0,1-21.8115-21.8115V-58.26A21.811,21.811,0,0,1,197.29-80.071Z" transform="translate(175.4793 258.5269) rotate(-90)"/><path class="cls-3" d="M162.6416,31.6131a13.9573,13.9573,0,0,0-7.7967-2.1855,15.1117,15.1117,0,0,0-7.87,2.0768A14.9432,14.9432,0,0,0,141.46,37.26a15.0167,15.0167,0,0,0-5.0515-5.6472,13.957,13.957,0,0,0-7.7967-2.1855,14.1543,14.1543,0,0,0-7.5057,2.04,14.7766,14.7766,0,0,0-3.9351,3.5222V32.1235a2.0168,2.0168,0,0,0-2.186-2.1865,2.1957,2.1957,0,0,0-1.5669.5829,2.0978,2.0978,0,0,0-.6191,1.6036V67.6107a2.1177,2.1177,0,0,0,2.186,2.1865,2.096,2.096,0,0,0,1.6031-.6191,2.1955,2.1955,0,0,0,.5829-1.5674V45.3129A10.9864,10.9864,0,0,1,128.612,33.8,9.5028,9.5028,0,0,1,136.3,37.37a13.9372,13.9372,0,0,1,2.9515,9.1818V67.6107a2.1177,2.1177,0,0,0,2.186,2.1865,2.0965,2.0965,0,0,0,1.6031-.6191,2.1955,2.1955,0,0,0,.5829-1.5674V46.5521c0-.1726-.009-.34-.0124-.51h.0124q-.1467-5.6106,3.0241-8.9271a10.8386,10.8386,0,0,1,8.1978-3.315,9.5028,9.5028,0,0,1,7.6879,3.5707,13.9394,13.9394,0,0,1,2.9516,9.1818V67.6107a2.1176,2.1176,0,0,0,2.1855,2.1865,2.0978,2.0978,0,0,0,1.6036-.6191,2.1955,2.1955,0,0,0,.5829-1.5674V46.5521a19.6468,19.6468,0,0,0-1.9309-8.8909A15.1246,15.1246,0,0,0,162.6416,31.6131Z"/><path class="cls-3" d="M204.6868,32.0873a19.2935,19.2935,0,0,0-19.2375.1087,18.3574,18.3574,0,0,0-6.63,7.1776,22.2107,22.2107,0,0,0-2.4059,10.53,21.2454,21.2454,0,0,0,2.5509,10.4935,18.4893,18.4893,0,0,0,7.0325,7.1776,20.1015,20.1015,0,0,0,10.2379,2.5871,20.7173,20.7173,0,0,0,7.1776-1.3842,18.4573,18.4573,0,0,0,6.0843-3.4982,1.8168,1.8168,0,0,0,.6926-1.4576,2.0023,2.0023,0,0,0-.8376-1.4567,1.9544,1.9544,0,0,0-1.4214-.4741,2.0729,2.0729,0,0,0-1.4214.6191,12.1807,12.1807,0,0,1-4.5542,2.5871,17.5851,17.5851,0,0,1-5.72.9836,15.3875,15.3875,0,0,1-8.0151-2.0768,14.575,14.575,0,0,1-5.4662-5.72,16.8386,16.8386,0,0,1-1.9246-7.0688h30.5624a2.1469,2.1469,0,0,0,1.53-.5467,1.945,1.945,0,0,0,.5838-1.4929A21.4381,21.4381,0,0,0,211.1737,39.01,17.4805,17.4805,0,0,0,204.6868,32.0873ZM182.6446,41.45a14.4023,14.4023,0,0,1,5.1-5.72,13.422,13.422,0,0,1,7.397-2.0767A13.8108,13.8108,0,0,1,202.756,35.73a13.6569,13.6569,0,0,1,4.993,5.72,16.7333,16.7333,0,0,1,1.5465,5.9755H180.9217A17.1947,17.1947,0,0,1,182.6446,41.45Z"/><path class="cls-3" d="M254.2391,12.886a2.1947,2.1947,0,0,0-1.5664.5829,2.0926,2.0926,0,0,0-.62,1.6026V37.8072a16.8866,16.8866,0,0,0-6.5212-6.0481,19.5722,19.5722,0,0,0-9.4366-2.259,20.6106,20.6106,0,0,0-10.4572,2.66,19.5068,19.5068,0,0,0-7.2864,7.251,20.39,20.39,0,0,0-2.66,10.42,20.59,20.59,0,0,0,2.66,10.4572,19.4153,19.4153,0,0,0,7.2864,7.2864,20.5925,20.5925,0,0,0,10.4572,2.66,20.2723,20.2723,0,0,0,10.31-2.6234,19.8542,19.8542,0,0,0,7.252-7.1413,20.0668,20.0668,0,0,0,2.7684-10.2016V15.0715a2.0179,2.0179,0,0,0-2.1865-2.1855Zm-4.2623,45.2882a15.5308,15.5308,0,0,1-13.882,7.98,15.7565,15.7565,0,0,1-13.9182-7.98,16.4354,16.4354,0,0,1-2.114-8.3433,16.2464,16.2464,0,0,1,2.114-8.3071A16.3381,16.3381,0,0,1,244.2932,35.73a15.6845,15.6845,0,0,1,5.6836,5.7934,16.4731,16.4731,0,0,1,2.0758,8.3071A16.6654,16.6654,0,0,1,249.9768,58.1742Z"/><path class="cls-3" d="M269.5425,29.937a2.1952,2.1952,0,0,0-1.5664.5829,2.0948,2.0948,0,0,0-.62,1.6036V67.6107a2.1192,2.1192,0,0,0,2.1865,2.1865,2.0956,2.0956,0,0,0,1.6026-.6191,2.1919,2.1919,0,0,0,.5839-1.5674V32.1235a2.0181,2.0181,0,0,0-2.1865-2.1865Z"/><path class="cls-3" d="M269.5425,14.7806a3.7135,3.7135,0,0,0-2.3677.8375,3.012,3.012,0,0,0-1.057,2.5147A3.3191,3.3191,0,0,0,267.1,20.574a3.2333,3.2333,0,0,0,2.37.9835,3.3616,3.3616,0,0,0,3.4247-3.4247,3.0176,3.0176,0,0,0-1.057-2.5147A3.6234,3.6234,0,0,0,269.5425,14.7806Z"/><path class="cls-3" d="M318.5454,39.447a19.521,19.521,0,0,0-7.25-7.2872,21.8126,21.8126,0,0,0-20.8764,0,19.455,19.455,0,0,0-7.2882,7.2872,20.61,20.61,0,0,0-2.66,10.4564,20.4668,20.4668,0,0,0,2.66,10.3847,19.4328,19.4328,0,0,0,7.2882,7.2864,20.5826,20.5826,0,0,0,10.4573,2.66,19.2647,19.2647,0,0,0,9.4728-2.2952,17.6764,17.6764,0,0,0,6.485-6.0776v5.7494a2.1185,2.1185,0,0,0,.62,1.5674,2.2115,2.2115,0,0,0,1.6389.6191,2.0042,2.0042,0,0,0,1.53-.6191,2.2,2.2,0,0,0,.5838-1.5674V49.9034A20.593,20.593,0,0,0,318.5454,39.447Zm-9.4728,24.5568a16.07,16.07,0,0,1-22.1147-5.83,16.2936,16.2936,0,0,1-2.1139-8.2708,16.4426,16.4426,0,0,1,2.1139-8.3433,16.31,16.31,0,0,1,22.1147-5.83,15.5783,15.5783,0,0,1,5.6836,5.83,16.674,16.674,0,0,1,2.0778,8.3433,16.5222,16.5222,0,0,1-2.0778,8.2708A15.5577,15.5577,0,0,1,309.0726,64.0038Z"/></g></g></svg>