<?xml version="1.0" encoding="utf-8"?>
<!-- Generator: Adobe Illustrator 23.1.0, SVG Export Plug-In . SVG Version: 6.00 Build 0)  -->
<svg version="1.1" xmlns="http://www.w3.org/2000/svg" xmlns:xlink="http://www.w3.org/1999/xlink" x="0px" y="0px"
	 viewBox="0 0 360 360" style="enable-background:new 0 0 360 360;" xml:space="preserve">
<style type="text/css">
	.st0{fill:#F2E8DA;}
	.st1{fill:#0D121B;}
	.st2{fill:#2190A6;}
	.st3{fill:#225273;}
	.st4{fill:#104D59;}
	.st5{fill:#D96C56;}
	.st6{fill:#FFFFFF;}
</style>
<g id="ajftech-profile-logo">
</g>
<g id="ajfmedia-profile-logo">
</g>
<g id="ajftech-bw-logo">
</g>
<g id="ajftech-color-logo">
</g>
<g id="ajfmedia-bw-logo">
</g>
<g id="ajfmedia-color-logo">
	<rect x="0" y="0" class="st1" width="360" height="360"/>
	<g>
		<path class="st0" d="M307.3,307.3H279c-15.6,0-28.3-12.7-28.3-28.3v0c0-15.6,12.7-28.3,28.3-28.3h0c15.6,0,28.3,12.7,28.3,28.3
			V307.3z"/>
		<g>
			<path class="st0" d="M236.6,52.7c-23.1,0-43.7,11.1-56.6,28.3c-12.9-17.2-33.4-28.3-56.6-28.3c-39,0-70.7,31.7-70.7,70.7
				s31.7,70.7,70.7,70.7v-28.3c-23.4,0-42.4-19-42.4-42.4C81,100,100,81,123.4,81c23.4,0,42.4,19,42.4,42.4v113.1
				c0,23.4-19,42.4-42.4,42.4C100,279,81,260,81,236.6H52.7c0,39,31.7,70.7,70.7,70.7s70.7-31.7,70.7-70.7v-42.4h42.4v-28.3h-42.4
				v-42.4c0-23.4,19-42.4,42.4-42.4c23.4,0,42.4,19,42.4,42.4h28.3C307.3,84.4,275.6,52.7,236.6,52.7z"/>
			<path class="st0" d="M137.6,194.1L137.6,194.1c3.9,0,7.1-3.2,7.1-7.1v-14.1c0-3.9-3.2-7.1-7.1-7.1h0V194.1z"/>
			<path class="st0" d="M250.7,194.1L250.7,194.1c3.9,0,7.1-3.2,7.1-7.1v-14.1c0-3.9-3.2-7.1-7.1-7.1h0V194.1z"/>
			<path class="st0" d="M279,137.6L279,137.6c0,3.9,3.2,7.1,7.1,7.1h14.1c3.9,0,7.1-3.2,7.1-7.1l0,0H279z"/>
			<path class="st0" d="M81,222.4L81,222.4c0-3.9-3.2-7.1-7.1-7.1H59.8c-3.9,0-7.1,3.2-7.1,7.1v0H81z"/>
		</g>
	</g>
</g>
</svg>
